<?xml version="1.0" standalone="no"?>
<!DOCTYPE svg PUBLIC "-//W3C//DTD SVG 20010904//EN"
 "http://www.w3.org/TR/2001/REC-SVG-20010904/DTD/svg10.dtd">
<svg version="1.0" xmlns="http://www.w3.org/2000/svg"
 width="512.000000pt" height="512.000000pt" viewBox="0 0 512.000000 512.000000"
 preserveAspectRatio="xMidYMid meet">

<g transform="translate(0.000000,512.000000) scale(0.100000,-0.100000)"
fill="#000000" stroke="none">
<path d="M2495 5106 c-73 -34 -95 -83 -95 -217 l0 -99 -37 0 c-57 0 -265 -36
-377 -65 -695 -181 -1278 -713 -1530 -1396 -61 -167 -126 -460 -126 -571 l0
-36 -114 -4 c-124 -3 -145 -11 -190 -72 -29 -39 -29 -133 0 -172 45 -61 66
-69 190 -72 l114 -4 0 -36 c0 -56 36 -265 65 -376 181 -695 713 -1278 1396
-1530 167 -61 460 -126 571 -126 l36 0 4 -114 c3 -124 11 -145 72 -190 39 -29
133 -29 172 0 61 45 69 66 72 190 l4 114 30 0 c64 0 248 32 378 66 776 202
1392 818 1594 1594 34 130 66 314 66 378 l0 30 114 4 c124 3 145 11 190 72 29
39 29 133 0 172 -45 61 -66 69 -190 72 l-114 4 0 36 c0 56 -36 265 -65 376
-199 765 -826 1392 -1591 1591 -111 29 -320 65 -376 65 l-36 0 -4 114 c-3 123
-11 145 -70 189 -34 25 -113 32 -153 13z m-95 -795 l0 -158 -77 -12 c-344 -54
-649 -208 -892 -452 -244 -243 -398 -548 -452 -891 l-12 -78 -158 0 c-184 0
-168 -16 -143 138 110 689 583 1266 1233 1502 154 56 367 106 469 109 l32 1 0
-159z m480 139 c398 -67 747 -248 1035 -535 236 -237 389 -494 485 -818 29
-95 70 -304 70 -354 l0 -22 -424 -3 c-411 -3 -425 -4 -452 -24 -53 -39 -69
-71 -69 -134 0 -63 16 -95 69 -134 23 -17 45 -22 132 -24 l105 -4 -7 -36 c-49
-285 -175 -525 -381 -723 -190 -183 -418 -297 -685 -343 l-36 -7 -4 105 c-3
113 -13 136 -72 180 -39 29 -133 29 -172 0 -59 -44 -69 -67 -72 -180 l-4 -105
-36 7 c-267 46 -495 160 -685 343 -206 198 -332 438 -381 723 l-7 36 105 4
c87 2 109 7 132 24 53 39 69 71 69 134 0 63 -16 95 -69 134 -23 17 -45 22
-132 24 l-105 4 7 36 c49 285 175 525 381 723 190 183 418 297 685 343 l36 7
4 -105 c2 -87 7 -109 24 -132 39 -53 71 -69 134 -69 63 0 95 16 134 69 20 27
21 41 24 452 l3 424 22 0 c12 0 74 -9 137 -20z m-1901 -2127 c54 -344 208
-649 452 -892 243 -244 548 -398 892 -452 l77 -12 0 -158 c0 -184 16 -168
-138 -143 -408 65 -765 247 -1057 539 -292 292 -474 649 -539 1057 -25 154
-41 138 143 138 l158 0 12 -77z m3491 57 c0 -11 -7 -64 -16 -118 -65 -408
-247 -765 -539 -1057 -292 -292 -649 -474 -1057 -539 -154 -25 -138 -41 -138
143 l0 158 78 12 c696 110 1233 647 1343 1344 l12 77 158 0 c153 0 159 -1 159
-20z"/>
<path d="M2353 3189 c-44 -13 -90 -62 -103 -110 -22 -79 29 -167 108 -189 20
-5 74 -10 119 -10 l82 0 3 -422 c3 -415 3 -424 25 -458 61 -99 205 -99 266 0
22 35 22 38 22 560 0 507 -1 526 -20 558 -11 18 -36 43 -55 55 -32 20 -49 22
-225 24 -104 1 -204 -2 -222 -8z"/>
</g>
</svg>
